<?xml version="1.0" encoding="UTF-8"?>
<!DOCTYPE svg PUBLIC "-//W3C//DTD SVG 1.1//EN" "http://www.w3.org/Graphics/SVG/1.1/DTD/svg11.dtd">
<svg xmlns="http://www.w3.org/2000/svg" version="1.1" width="386px" height="187px" style="shape-rendering:geometricPrecision; text-rendering:geometricPrecision; image-rendering:optimizeQuality; fill-rule:evenodd; clip-rule:evenodd" xmlns:xlink="http://www.w3.org/1999/xlink">
<g><path style="opacity:1" fill="#010101" d="M -0.5,-0.5 C 128.167,-0.5 256.833,-0.5 385.5,-0.5C 385.5,61.8333 385.5,124.167 385.5,186.5C 256.833,186.5 128.167,186.5 -0.5,186.5C -0.5,124.167 -0.5,61.8333 -0.5,-0.5 Z"/></g>
<g><path style="opacity:1" fill="#f9f9f9" d="M 49.5,2.5 C 64.6377,0.788849 73.8044,7.45552 77,22.5C 78.299,28.1191 78.6323,33.7858 78,39.5C 76.1213,21.9042 67.2879,16.7375 51.5,24C 30.6087,43.9961 21.1087,68.4961 23,97.5C 26.9822,115.593 36.4822,119.926 51.5,110.5C 43.6513,120.759 33.318,125.592 20.5,125C 13.6279,122.456 9.12789,117.622 7,110.5C -0.403464,71.7075 9.7632,38.2075 37.5,10C 41.3961,7.22474 45.3961,4.72474 49.5,2.5 Z"/></g>
<g><path style="opacity:1" fill="#fafafa" d="M 9.5,154.5 C 9.26269,153.209 9.59603,152.209 10.5,151.5C 13.1829,161.348 19.5163,165.181 29.5,163C 41.8313,155.994 50.6647,145.827 56,132.5C 62.5069,117.812 65.1736,102.479 64,86.5C 61.3554,71.1099 52.8554,65.9432 38.5,71C 45.4965,62.3321 54.4965,58.3321 65.5,59C 73.4874,61.7786 78.6541,67.2786 81,75.5C 86.9918,114.191 76.1584,147.358 48.5,175C 25.5122,187.837 12.5122,181.003 9.5,154.5 Z"/></g>
<g><path style="opacity:1" fill="#f7f7f7" d="M 105.5,61.5 C 109.833,61.5 114.167,61.5 118.5,61.5C 118.5,82.1667 118.5,102.833 118.5,123.5C 126.167,123.5 133.833,123.5 141.5,123.5C 141.5,129.167 141.5,134.833 141.5,140.5C 129.5,140.5 117.5,140.5 105.5,140.5C 105.5,114.167 105.5,87.8333 105.5,61.5 Z"/></g>
<g><path style="opacity:1" fill="#747474" d="M 148.5,61.5 C 152.833,61.5 157.167,61.5 161.5,61.5C 161.5,64.8333 161.5,68.1667 161.5,71.5C 157.167,71.5 152.833,71.5 148.5,71.5C 148.5,68.1667 148.5,64.8333 148.5,61.5 Z"/></g>
<g><path style="opacity:1" fill="#f9f9f9" d="M 195.5,112.5 C 195.783,113.289 196.283,113.956 197,114.5C 197.5,96.8365 197.667,79.1698 197.5,61.5C 200.5,61.5 203.5,61.5 206.5,61.5C 206.5,87.8333 206.5,114.167 206.5,140.5C 202.445,140.824 198.445,140.491 194.5,139.5C 185.921,122.675 177.088,106.008 168,89.5C 167.333,80.1667 167.333,70.8333 168,61.5C 177.688,78.2082 186.854,95.2082 195.5,112.5 Z"/></g>
<g><path style="opacity:1" fill="#5f5f5f" d="M 197.5,61.5 C 197.667,79.1698 197.5,96.8365 197,114.5C 196.283,113.956 195.783,113.289 195.5,112.5C 196.167,95.5 196.833,78.5 197.5,61.5 Z"/></g>
<g><path style="opacity:1" fill="#f7f7f7" d="M 244.5,61.5 C 249.844,61.334 255.177,61.5006 260.5,62C 251.688,72.9793 242.688,83.8126 233.5,94.5C 243.638,109.804 253.971,124.97 264.5,140C 258.167,140.667 251.833,140.667 245.5,140C 238.37,128.905 230.87,118.072 223,107.5C 219.63,110.535 216.63,113.868 214,117.5C 213.333,111.167 213.333,104.833 214,98.5C 224.379,86.2931 234.545,73.9597 244.5,61.5 Z"/></g>
<g><path style="opacity:1" fill="#fcfcfc" d="M 313.5,61.5 C 318.167,61.5 322.833,61.5 327.5,61.5C 327.667,83.5025 327.5,105.503 327,127.5C 320.745,138.383 311.245,143.716 298.5,143.5C 286.076,143.216 277.243,137.55 272,126.5C 271.5,115.839 271.333,105.172 271.5,94.5C 276.167,94.5 280.833,94.5 285.5,94.5C 285.334,103.173 285.5,111.84 286,120.5C 289.768,133.552 297.434,136.552 309,129.5C 310.861,127.112 312.194,124.446 313,121.5C 313.5,101.503 313.667,81.5028 313.5,61.5 Z"/></g>
<g><path style="opacity:1" fill="#fcfcfc" d="M 347.5,117.5 C 346.508,124.648 346.175,131.981 346.5,139.5C 342.5,139.5 338.5,139.5 334.5,139.5C 334.5,113.5 334.5,87.5 334.5,61.5C 344.326,60.8846 353.992,61.718 363.5,64C 383.017,74.2699 386.851,88.7699 375,107.5C 367.21,114.574 358.043,117.907 347.5,117.5 Z"/></g>
<g><path style="opacity:1" fill="#737373" d="M 277.5,62.5 C 278.458,62.9528 279.292,63.6195 280,64.5C 283.4,70.6294 286.234,76.9627 288.5,83.5C 287.5,83.5 286.5,83.5 285.5,83.5C 285.5,86.1667 285.5,88.8333 285.5,91.5C 280.833,91.5 276.167,91.5 271.5,91.5C 271.5,88.8333 271.5,86.1667 271.5,83.5C 270.127,83.6567 268.793,83.49 267.5,83C 271.245,76.3441 274.578,69.5108 277.5,62.5 Z"/></g>
<g><path style="opacity:1" fill="#b2b2b2" d="M 350.5,76.5 C 349.5,76.5 348.5,76.5 347.5,76.5C 347.5,85.1667 347.5,93.8333 347.5,102.5C 348.833,102.5 350.167,102.5 351.5,102.5C 350.081,103.451 348.415,103.784 346.5,103.5C 346.5,94.1667 346.5,84.8333 346.5,75.5C 348.099,75.2322 349.432,75.5655 350.5,76.5 Z"/></g>
<g><path style="opacity:1" fill="#030303" d="M 350.5,76.5 C 359.411,76.7704 365.078,81.1038 367.5,89.5C 365.223,97.432 359.889,101.765 351.5,102.5C 350.167,102.5 348.833,102.5 347.5,102.5C 347.5,93.8333 347.5,85.1667 347.5,76.5C 348.5,76.5 349.5,76.5 350.5,76.5 Z"/></g>
<g><path style="opacity:1" fill="#fefffe" d="M 148.5,78.5 C 152.5,78.5 156.5,78.5 160.5,78.5C 160.5,98.8333 160.5,119.167 160.5,139.5C 156.5,139.5 152.5,139.5 148.5,139.5C 148.5,119.167 148.5,98.8333 148.5,78.5 Z"/></g>
<g><path style="opacity:1" fill="#adadad" d="M 148.5,78.5 C 152.634,77.5151 156.968,77.1818 161.5,77.5C 161.5,98.5 161.5,119.5 161.5,140.5C 156.968,140.818 152.634,140.485 148.5,139.5C 152.5,139.5 156.5,139.5 160.5,139.5C 160.5,119.167 160.5,98.8333 160.5,78.5C 156.5,78.5 152.5,78.5 148.5,78.5 Z"/></g>
<g><path style="opacity:1" fill="#acacac" d="M 347.5,117.5 C 347.5,125.167 347.5,132.833 347.5,140.5C 342.968,140.818 338.634,140.485 334.5,139.5C 338.5,139.5 342.5,139.5 346.5,139.5C 346.175,131.981 346.508,124.648 347.5,117.5 Z"/></g>
<g><path style="opacity:1" fill="#9a9a9a" d="M 10.5,151.5 C 9.59603,152.209 9.26269,153.209 9.5,154.5C 8.36594,152.034 8.19927,149.367 9,146.5C 9.60767,148.154 10.1077,149.821 10.5,151.5 Z"/></g>
</svg>
