<svg xmlns="http://www.w3.org/2000/svg" viewBox="0 0 64 64"><title>Artboard 1</title><g id="Layer_2" data-name="Layer 2"><path d="M23.21,28.53A32.51,32.51,0,0,0,28,35.26a27.67,27.67,0,0,0,7.61,5.62.81.81,0,0,0,.66,0,2.78,2.78,0,0,0,.92-.66,11.08,11.08,0,0,0,.83-1c1.23-1.61,2.74-3.6,4.88-2.6l.13.06,7.13,4.1.06,0a3.23,3.23,0,0,1,1.34,2.78,7.49,7.49,0,0,1-1,3.53,7.22,7.22,0,0,1-3.43,3,15.36,15.36,0,0,1-4.23,1.15,14.42,14.42,0,0,1-6.46-.53,28.82,28.82,0,0,1-6.49-3.14l-.17-.11c-1.06-.66-2.2-1.36-3.32-2.19a41.65,41.65,0,0,1-11-12.47c-2.27-4.12-3.52-8.57-2.84-12.82a9.2,9.2,0,0,1,3.12-5.83,8.28,8.28,0,0,1,6.2-1.66.91.91,0,0,1,.72.46l4.57,7.73a2.41,2.41,0,0,1,.38,2.59,5,5,0,0,1-1.75,2c-.24.21-.53.42-.84.64-1,.74-2.19,1.6-1.79,2.61v0Z" id="id_101" style="fill: rgb(255, 255, 255);"></path></g></svg>