<svg version="1.1" id="Icons" xmlns="http://www.w3.org/2000/svg" xmlns:xlink="http://www.w3.org/1999/xlink" x="0px" y="0px" viewBox="0 0 32 32" style="enable-background:new 0 0 32 32;" xml:space="preserve">
<style type="text/css">
	.st0{fill:none;stroke:#000000;stroke-width:2;stroke-linecap:round;stroke-linejoin:round;stroke-miterlimit:10;}
</style>
<g>
	<path d="M17,8H6c-1.7,0-3,1.3-3,3v10c0,1.7,1.3,3,3,3h11c1.7,0,3-1.3,3-3V11C20,9.3,18.7,8,17,8z" id="id_101" style="fill: rgb(255, 255, 255);"></path>
	<path d="M28.5,8.1c-0.3-0.2-0.7-0.2-1,0l-5,3C22.2,11.3,22,11.6,22,12v8c0,0.4,0.2,0.7,0.5,0.9l5,3C27.6,24,27.8,24,28,24
		c0.2,0,0.3,0,0.5-0.1c0.3-0.2,0.5-0.5,0.5-0.9V9C29,8.6,28.8,8.3,28.5,8.1z" id="id_102" style="fill: rgb(255, 255, 255);"></path>
</g>
</svg>